<svg width="200" height="50" viewBox="0 0 200 50" fill="none" xmlns="http://www.w3.org/2000/svg">
  <rect width="50" height="50" rx="4" fill="#1F2937" />
  <path d="M10 10H40V18H10V10Z" fill="#EF4444" />
  <rect x="10" y="22" width="30" height="3" fill="#6B7280" />
  <rect x="10" y="29" width="30" height="3" fill="#6B7280" />
  <rect x="10" y="36" width="20" height="3" fill="#6B7280" />
  <circle cx="40" cy="38" r="6" fill="#EF4444" />
  <path d="M60 35L65 30H70L75 35L70 40H65L60 35Z" fill="#EF4444" />
  <path d="M80 15H85L90 35H85L84 30H81L80 35H75L80 15ZM83.5 25L82.5 20L81.5 25H83.5Z" fill="#F3F4F6" />
  <path d="M95 15H100L105 25V15H110V35H105L100 25V35H95V15Z" fill="#F3F4F6" />
  <path d="M115 15H125C127 15 128.5 15.5 129.5 16.5C130.5 17.5 131 19 131 21V29C131 31 130.5 32.5 129.5 33.5C128.5 34.5 127 35 125 35H115V15ZM120 30H125C125.667 30 126.167 29.8333 126.5 29.5C126.833 29.1667 127 28.6667 127 28V22C127 21.3333 126.833 20.8333 126.5 20.5C126.167 20.1667 125.667 20 125 20H120V30Z" fill="#F3F4F6" />
  <path d="M135 15H150V20H140V23H149V28H140V35H135V15Z" fill="#F3F4F6" />
  <path d="M155 15H170V20H160V23H169V28H160V30H170V35H155V15Z" fill="#F3F4F6" />
  <path d="M175 15H190V20H180V23H189V28H180V30H190V35H175V15Z" fill="#F3F4F6" />
</svg>